<svg xmlns="http://www.w3.org/2000/svg"
 xmlns:xlink="http://www.w3.org/1999/xlink"
 width="16px" height="16px"  viewBox="0 0 16 16">
<path fill-rule="evenodd"  fill="#3e3e3e"
 d="M7.890625,10.937012 C6.2105103,10.937012 4.843689,9.273682 4.843689,7.229248 C4.8433228,6.2558594 5.149536,5.33667 5.7058105,4.6416016 C6.283386,3.9199219 7.0594482,3.522461 7.890625,3.522461 C9.57074,3.522461 10.937439,5.1853027 10.937439,7.229248 C10.937439,9.273682 9.57074,10.937012 7.890625,10.937012 ZM7.890625,4.334961 C6.657959,4.334961 5.6553955,5.633789 5.6553955,7.229248 C5.65625,8.825439 6.6587524,10.124023 7.890625,10.124023 C9.122437,10.124023 10.124939,8.825684 10.124939,7.229248 C10.124939,5.633789 9.122437,4.334961 7.890625,4.334961 ZM11.363525,14.999512 C11.363525,14.999512 3.137024,14.999268 3.137024,14.999268 C2.5101318,14.999268 2.0,14.489014 2.0,13.861572 C2.0,12.024902 3.4940796,10.530518 5.3308716,10.530518 C5.555481,10.530518 5.7371216,10.712158 5.7371216,10.937012 C5.7371216,11.160889 5.555481,11.342773 5.3308716,11.342773 C3.9423828,11.342773 2.8125,12.472656 2.8125,13.861572 C2.8125,14.0407715 2.9580688,14.186279 3.137024,14.186279 C3.137024,14.186279 12.643372,14.186279 12.643372,14.186279 C12.822693,14.186279 12.96875,14.0407715 12.96875,13.861572 C12.96875,12.472656 11.83844,11.342773 10.449463,11.342773 C10.224976,11.342773 10.043274,11.160889 10.043274,10.937012 C10.043274,10.712158 10.224976,10.530518 10.449463,10.530518 C12.286682,10.530518 13.781189,12.024902 13.781189,13.861572 C13.781189,14.489014 13.27063,14.999268 12.643372,14.999268 C12.643372,14.999268 11.363525,14.999512 11.363525,14.999512 ZM11.644836,7.0405273 C11.613892,7.0405273 11.583008,7.0371094 11.551575,7.029785 C11.333374,6.97876 11.197693,6.760254 11.24884,6.541504 C11.312012,6.2731934 11.343689,5.9921875 11.343689,5.7060547 C11.343689,4.1101074 10.341187,2.8115234 9.109314,2.8115234 C8.788757,2.8115234 8.478577,2.8989258 8.187683,3.0708008 C7.9953003,3.1850586 7.7457886,3.1210938 7.631531,2.9279785 C7.517273,2.7346191 7.5811157,2.4855957 7.774414,2.371338 C8.186157,2.1279297 8.647583,1.9992676 9.109314,1.9992676 C10.789429,1.9992676 12.15625,3.6621094 12.15625,5.7060547 C12.15625,6.0546875 12.116943,6.397949 12.039978,6.727051 C11.995972,6.9143066 11.829285,7.0405273 11.644836,7.0405273 ZM14.53064,12.967773 C14.475464,12.967773 14.419617,12.956543 14.365967,12.932617 C14.160889,12.841553 14.068787,12.601318 14.159729,12.39624 C14.178284,12.355225 14.187439,12.310547 14.187439,12.263916 C14.187439,10.874756 13.138916,9.718018 11.749939,9.718018 C11.525391,9.718018 11.343689,9.535889 11.343689,9.311768 C11.343689,9.087402 11.525391,8.905029 11.749939,8.905029 C13.587219,8.905029 14.999939,10.427002 14.999939,12.263916 C14.999939,12.425049 14.967041,12.580322 14.902405,12.7265625 C14.8349,12.87793 14.686523,12.967773 14.53064,12.967773 Z"/>
</svg>