<svg xmlns="http://www.w3.org/2000/svg"
 xmlns:xlink="http://www.w3.org/1999/xlink"
 width="16px" height="16px"  viewBox="0 0 16 16">
<path fill-rule="evenodd"  fill="#555555"
 d="M13.781189,2.8117676 C13.556641,2.8117676 13.374939,2.9936523 13.374939,3.2180176 C13.374939,3.4431152 13.556641,3.6240234 13.781189,3.6240234 C14.005371,3.6240234 14.187439,3.8063965 14.187439,4.0307617 C14.187439,4.0307617 14.187439,6.0617676 14.187439,6.0617676 C14.187439,6.0617676 2.812439,6.0617676 2.812439,6.0617676 C2.812439,6.0617676 2.812439,4.0307617 2.812439,4.0307617 C2.812439,3.8063965 2.9945068,3.6240234 3.218689,3.6240234 C3.4432373,3.6240234 3.624939,3.4431152 3.624939,3.2180176 C3.624939,2.9936523 3.4432373,2.8117676 3.218689,2.8117676 C2.5466309,2.8117676 2.0,3.3583984 2.0,4.0307617 C2.0,4.0307617 2.0,13.780762 2.0,13.780762 C2.0,14.452637 2.5466309,14.999268 3.218689,14.999268 C3.218689,14.999268 13.781189,14.999268 13.781189,14.999268 C14.453247,14.999268 14.999939,14.452637 14.999939,13.780762 C14.999939,13.780762 14.999939,4.0307617 14.999939,4.0307617 C14.999939,3.3583984 14.453247,2.8117676 13.781189,2.8117676 ZM13.781189,14.186768 C13.781189,14.186768 3.218689,14.186768 3.218689,14.186768 C2.9945068,14.186768 2.812439,14.004883 2.812439,13.780762 C2.812439,13.780762 2.812439,6.8745117 2.812439,6.8745117 C2.812439,6.8745117 14.187439,6.8745117 14.187439,6.8745117 C14.187439,6.8745117 14.187439,13.780762 14.187439,13.780762 C14.187439,14.004883 14.005371,14.186768 13.781189,14.186768 ZM4.437439,4.437256 C4.6619873,4.437256 4.843689,4.255127 4.843689,4.0307617 C4.843689,4.0307617 4.843689,2.4057617 4.843689,2.4057617 C4.843689,2.1809082 4.6619873,1.9995117 4.437439,1.9995117 C4.2128906,1.9995117 4.031189,2.1809082 4.031189,2.4057617 C4.031189,2.4057617 4.031189,4.0307617 4.031189,4.0307617 C4.031189,4.255127 4.2128906,4.437256 4.437439,4.437256 ZM6.062439,4.437256 C6.2869873,4.437256 6.468689,4.255127 6.468689,4.0307617 C6.468689,4.0307617 6.468689,2.4057617 6.468689,2.4057617 C6.468689,2.1809082 6.2869873,1.9995117 6.062439,1.9995117 C5.8379517,1.9995117 5.65625,2.1809082 5.65625,2.4057617 C5.65625,2.4057617 5.65625,4.0307617 5.65625,4.0307617 C5.65625,4.255127 5.8379517,4.437256 6.062439,4.437256 ZM7.687439,4.437256 C7.9119873,4.437256 8.093689,4.255127 8.093689,4.0307617 C8.093689,4.0307617 8.093689,2.4057617 8.093689,2.4057617 C8.093689,2.1809082 7.9119873,1.9995117 7.687439,1.9995117 C7.4628906,1.9995117 7.281189,2.1809082 7.281189,2.4057617 C7.281189,2.4057617 7.281189,4.0307617 7.281189,4.0307617 C7.281189,4.255127 7.4628906,4.437256 7.687439,4.437256 ZM9.3125,4.437256 C9.536987,4.437256 9.718689,4.255127 9.718689,4.0307617 C9.718689,4.0307617 9.718689,2.4057617 9.718689,2.4057617 C9.718689,2.1809082 9.536987,1.9995117 9.3125,1.9995117 C9.087952,1.9995117 8.90625,2.1809082 8.90625,2.4057617 C8.90625,2.4057617 8.90625,4.0307617 8.90625,4.0307617 C8.90625,4.255127 9.087952,4.437256 9.3125,4.437256 ZM10.937439,4.437256 C11.161987,4.437256 11.343689,4.255127 11.343689,4.0307617 C11.343689,4.0307617 11.343689,2.4057617 11.343689,2.4057617 C11.343689,2.1809082 11.161987,1.9995117 10.937439,1.9995117 C10.712891,1.9995117 10.531189,2.1809082 10.531189,2.4057617 C10.531189,2.4057617 10.531189,4.0307617 10.531189,4.0307617 C10.531189,4.255127 10.712891,4.437256 10.937439,4.437256 ZM12.5625,4.437256 C12.786987,4.437256 12.968689,4.255127 12.968689,4.0307617 C12.968689,4.0307617 12.968689,2.4057617 12.968689,2.4057617 C12.968689,2.1809082 12.786987,1.9995117 12.5625,1.9995117 C12.337952,1.9995117 12.15625,2.1809082 12.15625,2.4057617 C12.15625,2.4057617 12.15625,4.0307617 12.15625,4.0307617 C12.15625,4.255127 12.337952,4.437256 12.5625,4.437256 ZM10.734375,8.093262 C9.950378,8.093262 9.3125,8.731201 9.3125,9.515137 C9.3125,9.739502 9.494202,9.921143 9.718689,9.921143 C9.943237,9.921143 10.124939,9.739502 10.124939,9.515137 C10.124939,9.178955 10.398315,8.905762 10.734375,8.905762 C11.0703125,8.905762 11.343689,9.178955 11.343689,9.515137 C11.343689,9.851074 11.0703125,10.124512 10.734375,10.124512 C10.509827,10.124512 10.328064,10.305908 10.328064,10.530762 C10.328064,10.755127 10.509827,10.936768 10.734375,10.936768 C11.0703125,10.936768 11.343689,11.210449 11.343689,11.546387 C11.343689,11.88208 11.0703125,12.155518 10.734375,12.155518 C10.398315,12.155518 10.124939,11.88208 10.124939,11.546387 C10.124939,11.321533 9.943237,11.140137 9.718689,11.140137 C9.494202,11.140137 9.3125,11.321533 9.3125,11.546387 C9.3125,12.330078 9.950378,12.968018 10.734375,12.968018 C11.5182495,12.968018 12.15625,12.330078 12.15625,11.546387 C12.15625,11.148682 11.99231,10.788818 11.728516,10.530762 C11.99231,10.272461 12.15625,9.912842 12.15625,9.515137 C12.15625,8.731201 11.5182495,8.093262 10.734375,8.093262 ZM7.687439,9.515137 C7.687439,8.731201 7.0494995,8.093262 6.265564,8.093262 C5.4816284,8.093262 4.843689,8.731201 4.843689,9.515137 C4.843689,9.739502 5.0253906,9.921143 5.249939,9.921143 C5.4744263,9.921143 5.65625,9.739502 5.65625,9.515137 C5.65625,9.178955 5.9296265,8.905762 6.265564,8.905762 C6.6015625,8.905762 6.874939,9.178955 6.874939,9.515137 C6.874939,9.888428 6.3270874,10.461914 5.887146,10.922852 C5.3272705,11.508789 4.843689,12.015137 4.843689,12.562012 C4.843689,12.786621 5.0253906,12.968018 5.249939,12.968018 C5.249939,12.968018 7.281189,12.968018 7.281189,12.968018 C7.5057373,12.968018 7.687439,12.786621 7.687439,12.562012 C7.687439,12.337402 7.5057373,12.155518 7.281189,12.155518 C7.281189,12.155518 5.8720093,12.155518 5.8720093,12.155518 C6.0406494,11.938965 6.2782593,11.689941 6.4746094,11.484131 C7.070862,10.859863 7.687439,10.214111 7.687439,9.515137 Z"/>
</svg>