<svg xmlns="http://www.w3.org/2000/svg"
 xmlns:xlink="http://www.w3.org/1999/xlink"
 width="16px" height="16px"  viewBox="0 0 16 16">
<path fill-rule="evenodd"  fill="#555555"
 d="M8.333252,1.6660156 C4.6572876,1.6660156 1.666565,4.6567383 1.666565,8.332764 C1.666565,12.008789 4.6572876,14.999512 8.333252,14.999512 C12.009277,14.999512 14.999939,12.008789 14.999939,8.332764 C14.999939,4.6567383 12.009277,1.6660156 8.333252,1.6660156 ZM8.333252,14.16626 C5.116699,14.16626 2.499939,11.549072 2.499939,8.332764 C2.499939,5.115967 5.116699,2.4990234 8.333252,2.4990234 C11.549866,2.4990234 14.166626,5.115967 14.166626,8.332764 C14.166626,11.549072 11.549866,14.16626 8.333252,14.16626 ZM9.42218,8.933838 C9.52179,8.754395 9.583252,8.552002 9.583252,8.332764 C9.583252,7.790283 9.233704,7.3320312 8.75,7.159424 C8.75,7.159424 8.75,3.7492676 8.75,3.7492676 C8.75,3.5195312 8.563538,3.3325195 8.333252,3.3325195 C8.102966,3.3325195 7.916626,3.5195312 7.916626,3.7492676 C7.916626,3.7492676 7.916626,7.159424 7.916626,7.159424 C7.4328613,7.3320312 7.083252,7.790283 7.083252,8.332764 C7.083252,9.021973 7.644043,9.58252 8.333252,9.58252 C8.498474,9.58252 8.656006,9.548828 8.800415,9.4904785 C8.800415,9.4904785 10.538635,11.2282715 10.538635,11.2282715 C10.620117,11.309814 10.726624,11.350342 10.833252,11.350342 C10.93988,11.350342 11.046509,11.309814 11.127869,11.2282715 C11.290649,11.065674 11.290649,10.801758 11.127869,10.63916 C11.127869,10.63916 9.42218,8.933838 9.42218,8.933838 ZM8.333252,8.749268 C8.1033325,8.749268 7.916626,8.5625 7.916626,8.332764 C7.916626,8.103027 8.1033325,7.9157715 8.333252,7.9157715 C8.563232,7.9157715 8.75,8.103027 8.75,8.332764 C8.75,8.5625 8.563232,8.749268 8.333252,8.749268 Z"/>
</svg>