<svg xmlns="http://www.w3.org/2000/svg"
 xmlns:xlink="http://www.w3.org/1999/xlink"
 width="15px" height="15px"  viewBox="0 0 15 15">
<path fill-rule="evenodd"  fill="#555555"
 d="M7.5878906,9.796143 C5.610718,9.796143 4.001953,7.830078 4.001953,5.41333 C4.00177,4.259033 4.364197,3.1699219 5.022583,2.3469238 C5.701721,1.4980469 6.612854,1.0302734 7.5877075,1.0302734 C9.56488,1.0302734 11.173645,2.996582 11.173828,5.41333 C11.173828,7.830078 9.5651245,9.796143 7.5878906,9.796143 ZM7.5877075,1.8273926 C6.0497437,1.8273926 4.798401,3.4360352 4.798401,5.41333 C4.798828,7.390625 6.050232,8.999268 7.5878906,8.999268 C9.125793,8.999268 10.376953,7.390625 10.376953,5.41333 C10.37677,3.4360352 9.12561,1.8273926 7.5877075,1.8273926 ZM11.373047,13.780762 C11.373047,13.780762 2.4082031,13.780518 2.4082031,13.780518 C1.7490845,13.780518 1.2128906,13.244385 1.2128906,12.585205 C1.2128906,10.608154 2.8215942,8.999268 4.798828,8.999268 C5.01886,8.999268 5.1972656,9.17749 5.1972656,9.397949 C5.1972656,9.617676 5.01886,9.796143 4.798828,9.796143 C3.2609253,9.796143 2.0097656,11.047363 2.0097656,12.585205 C2.0097656,12.804932 2.1885376,12.983643 2.4082031,12.983643 C2.4082031,12.983643 12.767517,12.983643 12.767517,12.983643 C12.987244,12.983643 13.166077,12.804932 13.166077,12.585205 C13.166077,11.047363 11.914917,9.796143 10.376953,9.796143 C10.156982,9.796143 9.978516,9.617676 9.978516,9.397949 C9.978516,9.17749 10.156982,8.999268 10.376953,8.999268 C12.354126,8.999268 13.962952,10.608154 13.962952,12.585205 C13.962952,13.244385 13.426697,13.780518 12.767517,13.780518 C12.767517,13.780518 11.373047,13.780762 11.373047,13.780762 Z"/>
</svg>